# xmcd CD database file
#
# Track frame offsets:
#	151
#	11049
#	26169
#	38349
#	52048
#	69230
#	80200
#	92998
#	105393
#	118338
#	135435
#	147513
#	163129
#	177701
#	194848
#	210404
#	224730
#	239374
#	253740
#	273193
#
# Disc length: 3846 seconds
#
# Revision: 0
# Processed by: cddbd v1.5.2PL0 Copyright (c) Steve Scherf et al.
# Submitted via: CDex 1.51
#
DISCID=370f0414
DTITLE=Erroll Garner - Lover
DYEAR=1900
DGENRE=Jazz
TTITLE0=Fine and Dandy
TTITLE1=Robbin's Nest
TTITLE2=I Never Knew
TTITLE3=Summertime
TTITLE4=The Way You Look Tonight
TTITLE5=Play, Piano Play
TTITLE6=I Didn't Know
TTITLE7=Ain't She Sweet?
TTITLE8=Sophisticated Lady
TTITLE9=When You're Smiling
TTITLE10=Long Ago and Far Away
TTITLE11=How High the Moon
TTITLE12=Lover
TTITLE13=It Could Happen To You
TTITLE14=Honeysuckle Rose
TTITLE15=Poor Butterfly
TTITLE16=The Petite Waltz Bounce
TTITLE17=Undecided
TTITLE18=My Heart Stood Still
TTITLE19=When Johnny Comes Marching Home
EXTD=
EXTT0=
EXTT1=
EXTT2=
EXTT3=
EXTT4=
EXTT5=
EXTT6=
EXTT7=
EXTT8=
EXTT9=
EXTT10=
EXTT11=
EXTT12=
EXTT13=
EXTT14=
EXTT15=
EXTT16=
EXTT17=
EXTT18=
EXTT19=
PLAYORDER=
